<?xml version="1.0" encoding="UTF-8" standalone="no"?>
<!-- Created with Inkscape (http://www.inkscape.org/) -->

<svg
   width="210mm"
   height="297mm"
   viewBox="0 0 210 297"
   version="1.1"
   id="svg11430"
   inkscape:version="1.2.1 (9c6d41e410, 2022-07-14)"
   sodipodi:docname="drawing.svg"
   inkscape:export-filename="drawing.png"
   inkscape:export-xdpi="96"
   inkscape:export-ydpi="96"
   xmlns:inkscape="http://www.inkscape.org/namespaces/inkscape"
   xmlns:sodipodi="http://sodipodi.sourceforge.net/DTD/sodipodi-0.dtd"
   xmlns:xlink="http://www.w3.org/1999/xlink"
   xmlns="http://www.w3.org/2000/svg"
   xmlns:svg="http://www.w3.org/2000/svg">
  <sodipodi:namedview
     id="namedview11432"
     pagecolor="#ffffff"
     bordercolor="#666666"
     borderopacity="1.0"
     inkscape:showpageshadow="2"
     inkscape:pageopacity="0.0"
     inkscape:pagecheckerboard="0"
     inkscape:deskcolor="#d1d1d1"
     inkscape:document-units="mm"
     showgrid="false"
     showguides="false"
     inkscape:zoom="0.46769781"
     inkscape:cx="466.11294"
     inkscape:cy="538.80945"
     inkscape:window-width="1366"
     inkscape:window-height="705"
     inkscape:window-x="-8"
     inkscape:window-y="-8"
     inkscape:window-maximized="1"
     inkscape:current-layer="layer1" />
  <defs
     id="defs11427">
    <linearGradient
       id="linearGradient42383"
       inkscape:swatch="solid">
      <stop
         style="stop-color:#000000;stop-opacity:0;"
         offset="0"
         id="stop42381" />
    </linearGradient>
    <pattern
       inkscape:collect="always"
       xlink:href="#Strips1_1"
       id="pattern33144"
       patternTransform="matrix(23.600153,-2.3129418e-7,-4.5101321e-7,23.600154,-276.69681,-69.656438)" />
    <pattern
       inkscape:collect="always"
       patternUnits="userSpaceOnUse"
       width="2"
       height="1"
       patternTransform="translate(0,0) scale(10,10)"
       id="Strips1_1"
       inkscape:stockid="Stripes 1:1"
       inkscape:isstock="true">
      <rect
         style="fill:black;stroke:none"
         x="0"
         y="-0.5"
         width="1"
         height="2"
         id="rect2386" />
    </pattern>
    <linearGradient
       id="linearGradient32647"
       inkscape:swatch="solid">
      <stop
         style="stop-color:#00006b;stop-opacity:1;"
         offset="0"
         id="stop32645" />
    </linearGradient>
    <linearGradient
       id="linearGradient32573"
       inkscape:swatch="solid">
      <stop
         style="stop-color:#00006b;stop-opacity:1;"
         offset="0"
         id="stop32571" />
    </linearGradient>
    <linearGradient
       id="linearGradient32499"
       inkscape:swatch="solid">
      <stop
         style="stop-color:#00006b;stop-opacity:1;"
         offset="0"
         id="stop32497" />
    </linearGradient>
    <linearGradient
       id="linearGradient31897"
       inkscape:swatch="solid">
      <stop
         style="stop-color:#000000;stop-opacity:1;"
         offset="0"
         id="stop31895" />
    </linearGradient>
    <linearGradient
       id="linearGradient28859"
       inkscape:swatch="solid">
      <stop
         style="stop-color:#211907;stop-opacity:1;"
         offset="0"
         id="stop28857" />
    </linearGradient>
    <linearGradient
       id="linearGradient20623"
       inkscape:swatch="solid">
      <stop
         style="stop-color:#327600;stop-opacity:1;"
         offset="0"
         id="stop20621" />
    </linearGradient>
    <linearGradient
       inkscape:collect="always"
       id="linearGradient19210">
      <stop
         style="stop-color:#553fa5;stop-opacity:1;"
         offset="0"
         id="stop19206" />
      <stop
         style="stop-color:#5567aa;stop-opacity:0;"
         offset="1"
         id="stop19208" />
    </linearGradient>
    <linearGradient
       id="linearGradient19171"
       inkscape:swatch="solid">
      <stop
         style="stop-color:#000000;stop-opacity:1;"
         offset="0"
         id="stop19169" />
    </linearGradient>
    <linearGradient
       id="linearGradient16680"
       inkscape:swatch="solid">
      <stop
         style="stop-color:#6b6739;stop-opacity:1;"
         offset="0"
         id="stop16678" />
    </linearGradient>
    <linearGradient
       id="linearGradient15470"
       inkscape:swatch="solid">
      <stop
         style="stop-color:#25e405;stop-opacity:1;"
         offset="0"
         id="stop15468" />
    </linearGradient>
    <linearGradient
       inkscape:collect="always"
       xlink:href="#linearGradient19210"
       id="linearGradient19212"
       x1="44.746523"
       y1="191.21143"
       x2="86.499189"
       y2="191.21143"
       gradientUnits="userSpaceOnUse" />
    <linearGradient
       inkscape:collect="always"
       xlink:href="#linearGradient19210"
       id="linearGradient19212-5"
       x1="44.746525"
       y1="191.21143"
       x2="86.499191"
       y2="191.21143"
       gradientUnits="userSpaceOnUse" />
    <marker
       style="overflow:visible"
       refX="0"
       refY="0"
       orient="auto"
       inkscape:stockid="EmptyDiamond"
       id="EmptyDiamond-1"
       markerWidth="7.6367531"
       markerHeight="7.6367531"
       viewBox="0 0 7.6367532 7.6367533"
       inkscape:isstock="true"
       inkscape:collect="always"
       preserveAspectRatio="xMidYMid">
      <path
         transform="scale(0.45)"
         style="fill:context-fill;fill-rule:evenodd;stroke:context-stroke;stroke-width:2"
         d="M 0,-7.0710768 -7.0710894,0 0,7.0710589 7.0710462,0 Z"
         id="path108-9" />
    </marker>
    <marker
       style="overflow:visible"
       refX="0"
       refY="0"
       orient="auto"
       inkscape:stockid="EmptyDiamond"
       id="EmptyDiamond-1-7"
       markerWidth="7.6367531"
       markerHeight="7.6367531"
       viewBox="0 0 7.6367532 7.6367533"
       inkscape:isstock="true"
       inkscape:collect="always"
       preserveAspectRatio="xMidYMid">
      <path
         transform="scale(0.45)"
         style="fill:context-fill;fill-rule:evenodd;stroke:context-stroke;stroke-width:2"
         d="M 0,-7.0710768 -7.0710894,0 0,7.0710589 7.0710462,0 Z"
         id="path108-9-2" />
    </marker>
    <marker
       style="overflow:visible"
       refX="0"
       refY="0"
       orient="auto"
       inkscape:stockid="EmptyDiamond"
       id="EmptyDiamond-1-1"
       markerWidth="7.6367531"
       markerHeight="7.6367531"
       viewBox="0 0 7.6367532 7.6367533"
       inkscape:isstock="true"
       inkscape:collect="always"
       preserveAspectRatio="xMidYMid">
      <path
         transform="scale(0.45)"
         style="fill:context-fill;fill-rule:evenodd;stroke:context-stroke;stroke-width:2"
         d="M 0,-7.0710768 -7.0710894,0 0,7.0710589 7.0710462,0 Z"
         id="path108-9-8" />
    </marker>
    <marker
       style="overflow:visible"
       refX="0"
       refY="0"
       orient="auto"
       inkscape:stockid="EmptyDiamond"
       id="EmptyDiamond-1-8"
       markerWidth="7.6367531"
       markerHeight="7.6367531"
       viewBox="0 0 7.6367532 7.6367533"
       inkscape:isstock="true"
       inkscape:collect="always"
       preserveAspectRatio="xMidYMid">
      <path
         transform="scale(0.45)"
         style="fill:context-fill;fill-rule:evenodd;stroke:context-stroke;stroke-width:2"
         d="M 0,-7.0710768 -7.0710894,0 0,7.0710589 7.0710462,0 Z"
         id="path108-9-1" />
    </marker>
    <marker
       style="overflow:visible"
       refX="0"
       refY="0"
       orient="auto"
       inkscape:stockid="EmptyDiamond"
       id="EmptyDiamond-1-12"
       markerWidth="7.6367531"
       markerHeight="7.6367531"
       viewBox="0 0 7.6367532 7.6367533"
       inkscape:isstock="true"
       inkscape:collect="always"
       preserveAspectRatio="xMidYMid">
      <path
         transform="scale(0.45)"
         style="fill:context-fill;fill-rule:evenodd;stroke:context-stroke;stroke-width:2"
         d="M 0,-7.0710768 -7.0710894,0 0,7.0710589 7.0710462,0 Z"
         id="path108-9-87" />
    </marker>
    <linearGradient
       inkscape:collect="always"
       xlink:href="#linearGradient28859"
       id="linearGradient28861"
       x1="2.9433557"
       y1="28.591281"
       x2="28.123491"
       y2="28.591281"
       gradientUnits="userSpaceOnUse" />
    <linearGradient
       inkscape:collect="always"
       xlink:href="#linearGradient31897"
       id="linearGradient31899"
       x1="2.9437371"
       y1="28.735888"
       x2="27.839345"
       y2="28.735888"
       gradientUnits="userSpaceOnUse" />
    <linearGradient
       inkscape:collect="always"
       xlink:href="#linearGradient28859"
       id="linearGradient32501"
       x1="2.943737"
       y1="28.735888"
       x2="27.839346"
       y2="28.735888"
       gradientUnits="userSpaceOnUse" />
    <linearGradient
       inkscape:collect="always"
       xlink:href="#linearGradient28859"
       id="linearGradient32649"
       x1="2.943737"
       y1="28.735888"
       x2="27.839346"
       y2="28.735888"
       gradientUnits="userSpaceOnUse" />
    <linearGradient
       inkscape:collect="always"
       xlink:href="#linearGradient42383"
       id="linearGradient42385"
       x1="159.95406"
       y1="245.61252"
       x2="206.46461"
       y2="245.61252"
       gradientUnits="userSpaceOnUse" />
  </defs>
  <g
     inkscape:label="Layer 1"
     inkscape:groupmode="layer"
     id="layer1">
    <text
       xml:space="preserve"
       style="font-style:normal;font-variant:normal;font-weight:normal;font-stretch:normal;font-size:25.812px;line-height:1.25;font-family:'Copperplate Gothic Light';-inkscape-font-specification:'Copperplate Gothic Light, Normal';font-variant-ligatures:normal;font-variant-caps:normal;font-variant-numeric:normal;font-variant-east-asian:normal;fill:#0000ff;fill-opacity:1;stroke:none;stroke-width:0.645302"
       x="51.211605"
       y="27.454262"
       id="text11799"
       transform="matrix(0.54548191,-0.00548262,0.01532795,1.8330873,0,0)"><tspan
         sodipodi:role="line"
         id="tspan11797"
         style="font-style:normal;font-variant:normal;font-weight:normal;font-stretch:normal;font-size:25.812px;font-family:'Copperplate Gothic Light';-inkscape-font-specification:'Copperplate Gothic Light, Normal';font-variant-ligatures:normal;font-variant-caps:normal;font-variant-numeric:normal;font-variant-east-asian:normal;fill:#0000ff;fill-opacity:1;stroke-width:0.645302"
         x="51.211605"
         y="27.454262"
         dy="0 0 0 0 0 0 0 0 0 0 8.019824 -8.019824 -6.9505143 6.9505143 8.019824 -8.019824"><tspan
   style="fill:#00e7ff;fill-opacity:1"
   id="tspan45766">A</tspan>bdallah Mamhou<tspan
   style="fill:#00e8ff;fill-opacity:1"
   id="tspan45768">d</tspan></tspan></text>
    <path
       sodipodi:type="star"
       style="opacity:0.99;fill:url(#linearGradient19212);fill-opacity:1;fill-rule:evenodd;stroke:#00006b;stroke-width:11.3579;stroke-dasharray:none;stroke-opacity:1;paint-order:stroke fill markers"
       id="path17942"
       inkscape:flatsided="false"
       sodipodi:sides="74"
       sodipodi:cx="65.622856"
       sodipodi:cy="191.21143"
       sodipodi:r1="20.87018"
       sodipodi:r2="15.941838"
       sodipodi:arg1="0.57296614"
       sodipodi:arg2="0.6154201"
       inkscape:rounded="0"
       inkscape:randomized="0"
       d="m 83.159999,202.52571 -4.520138,-2.11104 3.497441,3.55753 -4.324825,-2.48676 3.183142,3.84132 -4.098352,-2.84458 2.845908,4.09743 -3.842351,-3.1819 2.48817,4.32402 -3.558666,-3.49629 2.112504,4.51946 -3.24934,-3.78549 1.721617,4.68232 -2.916602,-4.04741 1.318326,4.81146 -2.56285,-4.28018 0.905537,4.90593 -2.190633,-4.4821 0.486222,4.96504 -1.802632,-4.65173 0.0634,4.9884 -1.401644,-4.78786 -0.359868,4.97581 -0.990556,-4.88947 -0.78055,4.92736 -0.572332,-4.95586 -1.195607,4.84341 -0.149983,-4.98655 -1.60205,4.72457 0.273445,-4.9813 -1.99695,4.57169 0.694904,-4.94017 -2.377461,4.38587 1.111355,-4.86344 -2.740844,4.16844 1.5198,-4.75166 -3.084478,3.92098 1.917294,-4.60566 -3.405889,3.64527 2.300975,-4.42646 -3.702761,3.3433 2.668076,-4.21539 -3.972953,3.01725 3.015954,-3.97394 -4.214521,2.66945 3.342102,-3.70385 -4.425722,2.30241 3.64417,-3.40707 -4.605037,1.91879 3.919982,-3.08575 -4.751172,1.52134 4.16755,-2.7422 -4.863075,1.11294 4.385092,-2.37889 -4.939939,0.69651 4.571037,-1.99843 -4.981211,0.27506 4.72405,-1.60358 -4.986593,-0.14837 4.843024,-1.19718 -4.956046,-0.57072 4.927105,-0.78215 -4.889791,-0.98897 4.975685,-0.36148 -4.788305,-1.40009 4.988417,0.0618 -4.65232,-1.80112 4.965206,0.48461 -4.482813,-2.18918 4.906221,0.90395 -4.281009,-2.56146 4.811886,1.31676 -4.048359,-2.91529 4.682882,1.7201 -3.786541,-3.24811 4.520137,2.11104 -3.497441,-3.55753 4.324825,2.48676 -3.183142,-3.84132 4.098352,2.84458 -2.845908,-4.09743 3.842351,3.1819 -2.488169,-4.32402 3.558665,3.49629 -2.112503,-4.51945 3.249339,3.78548 -1.721617,-4.68232 2.916602,4.04741 -1.318326,-4.81146 2.56285,4.28018 -0.905536,-4.90593 2.190633,4.48211 -0.486223,-4.96505 1.802633,4.65173 -0.06341,-4.98839 1.401644,4.78785 0.359868,-4.97581 0.990557,4.88947 0.780549,-4.92735 0.572332,4.95586 1.195607,-4.84342 0.149983,4.98655 1.60205,-4.72457 -0.273445,4.9813 1.99695,-4.57169 -0.694904,4.94017 2.377462,-4.38587 -1.111356,4.86344 2.740844,-4.16844 -1.5198,4.75167 3.084479,-3.92099 -1.917295,4.60566 3.405889,-3.64527 -2.300974,4.42647 3.70276,-3.34331 -2.668076,4.21539 3.972953,-3.01724 -3.015954,3.97393 4.214521,-2.66945 -3.342102,3.70385 4.425723,-2.30241 -3.644171,3.40707 4.605037,-1.91879 -3.919982,3.08575 4.751172,-1.52134 -4.16755,2.7422 4.863075,-1.11294 -4.385091,2.37889 4.939939,-0.69651 -4.571038,1.99843 4.981211,-0.27506 -4.724049,1.60359 4.986592,0.14836 -4.843024,1.19718 4.956046,0.57072 -4.927104,0.78215 4.889791,0.98897 -4.975686,0.36148 4.788305,1.40009 -4.988416,-0.0618 4.652319,1.80112 -4.965206,-0.48461 4.482813,2.18918 -4.90622,-0.90395 4.281008,2.56146 -4.811886,-1.31676 4.048359,2.91529 -4.682882,-1.7201 z"
       transform="matrix(0.58936585,0,0,0.33424002,-23.684437,-27.421939)"
       inkscape:transform-center-x="-0.77591858"
       inkscape:transform-center-y="-0.47871867" />
    <path
       sodipodi:type="star"
       style="opacity:0.99;fill:url(#linearGradient19212-5);fill-opacity:1;fill-rule:evenodd;stroke:#00006b;stroke-width:11.3579;stroke-dasharray:none;stroke-opacity:1;paint-order:stroke fill markers"
       id="path17942-6"
       inkscape:flatsided="false"
       sodipodi:sides="74"
       sodipodi:cx="65.622856"
       sodipodi:cy="191.21143"
       sodipodi:r1="20.87018"
       sodipodi:r2="15.941838"
       sodipodi:arg1="0.57296614"
       sodipodi:arg2="0.6154201"
       inkscape:rounded="0"
       inkscape:randomized="0"
       d="m 83.159999,202.52571 -4.520138,-2.11104 3.497441,3.55753 -4.324825,-2.48676 3.183142,3.84132 -4.098352,-2.84458 2.845908,4.09743 -3.842351,-3.1819 2.48817,4.32402 -3.558666,-3.49629 2.112504,4.51946 -3.24934,-3.78549 1.721617,4.68232 -2.916602,-4.04741 1.318326,4.81146 -2.56285,-4.28018 0.905537,4.90593 -2.190633,-4.4821 0.486222,4.96504 -1.802632,-4.65173 0.0634,4.9884 -1.401644,-4.78786 -0.359868,4.97581 -0.990556,-4.88947 -0.78055,4.92736 -0.572332,-4.95586 -1.195607,4.84341 -0.149983,-4.98655 -1.60205,4.72457 0.273445,-4.9813 -1.99695,4.57169 0.694904,-4.94017 -2.377461,4.38587 1.111355,-4.86344 -2.740844,4.16844 1.5198,-4.75166 -3.084478,3.92098 1.917294,-4.60566 -3.405889,3.64527 2.300975,-4.42646 -3.702761,3.3433 2.668076,-4.21539 -3.972953,3.01725 3.015954,-3.97394 -4.214521,2.66945 3.342102,-3.70385 -4.425722,2.30241 3.64417,-3.40707 -4.605037,1.91879 3.919982,-3.08575 -4.751172,1.52134 4.16755,-2.7422 -4.863075,1.11294 4.385092,-2.37889 -4.939939,0.69651 4.571037,-1.99843 -4.981211,0.27506 4.72405,-1.60358 -4.986593,-0.14837 4.843024,-1.19718 -4.956046,-0.57072 4.927105,-0.78215 -4.889791,-0.98897 4.975685,-0.36148 -4.788305,-1.40009 4.988417,0.0618 -4.65232,-1.80112 4.965206,0.48461 -4.482813,-2.18918 4.906221,0.90395 -4.281009,-2.56146 4.811886,1.31676 -4.048359,-2.91529 4.682882,1.7201 -3.786541,-3.24811 4.520137,2.11104 -3.497441,-3.55753 4.324825,2.48676 -3.183142,-3.84132 4.098352,2.84458 -2.845908,-4.09743 3.842351,3.1819 -2.488169,-4.32402 3.558665,3.49629 -2.112503,-4.51945 3.249339,3.78548 -1.721617,-4.68232 2.916602,4.04741 -1.318326,-4.81146 2.56285,4.28018 -0.905536,-4.90593 2.190633,4.48211 -0.486223,-4.96505 1.802633,4.65173 -0.06341,-4.98839 1.401644,4.78785 0.359868,-4.97581 0.990557,4.88947 0.780549,-4.92735 0.572332,4.95586 1.195607,-4.84342 0.149983,4.98655 1.60205,-4.72457 -0.273445,4.9813 1.99695,-4.57169 -0.694904,4.94017 2.377462,-4.38587 -1.111356,4.86344 2.740844,-4.16844 -1.5198,4.75167 3.084479,-3.92099 -1.917295,4.60566 3.405889,-3.64527 -2.300974,4.42647 3.70276,-3.34331 -2.668076,4.21539 3.972953,-3.01724 -3.015954,3.97393 4.214521,-2.66945 -3.342102,3.70385 4.425723,-2.30241 -3.644171,3.40707 4.605037,-1.91879 -3.919982,3.08575 4.751172,-1.52134 -4.16755,2.7422 4.863075,-1.11294 -4.385091,2.37889 4.939939,-0.69651 -4.571038,1.99843 4.981211,-0.27506 -4.724049,1.60359 4.986592,0.14836 -4.843024,1.19718 4.956046,0.57072 -4.927104,0.78215 4.889791,0.98897 -4.975686,0.36148 4.788305,1.40009 -4.988416,-0.0618 4.652319,1.80112 -4.965206,-0.48461 4.482813,2.18918 -4.90622,-0.90395 4.281008,2.56146 -4.811886,-1.31676 4.048359,2.91529 -4.682882,-1.7201 z"
       transform="matrix(0.58936585,0,0,0.33424002,153.66698,-27.704796)"
       inkscape:transform-center-x="-0.77591858"
       inkscape:transform-center-y="-0.47871867" />
    <path
       sodipodi:type="star"
       style="opacity:0.99;fill:#0000ff;fill-opacity:1;fill-rule:evenodd;stroke:#000000;stroke-width:2.933;stroke-dasharray:none;stroke-opacity:1;marker-start:url(#EmptyDiamond-1);paint-order:stroke fill markers"
       id="path20819-8"
       inkscape:flatsided="false"
       sodipodi:sides="74"
       sodipodi:cx="15.84"
       sodipodi:cy="23.194286"
       sodipodi:r1="12.000612"
       sodipodi:r2="9.1667538"
       sodipodi:arg1="1.7126934"
       sodipodi:arg2="1.7551473"
       inkscape:rounded="0"
       inkscape:randomized="0"
       d="m 14.142857,35.074286 0.0168,-2.868573 -1.018179,2.681848 0.26001,-2.856815 -1.241948,2.585839 0.501349,-2.824472 -1.456768,2.471198 0.739074,-2.77178 -1.661093,2.338753 0.971475,-2.699116 L 9.4001282,33.320625 10.597005,30.71362 8.5645544,32.738006 9.9782085,30.241894 7.7814003,32.086624 9.4016468,29.71939 7.0563086,31.371172 8.8714735,29.149873 6.3945036,30.596805 8.3915087,28.537446 5.8007536,29.769104 7.9652104,27.886521 5.2793367,28.89403 7.5956502,27.201788 4.8340095,27.97789 7.2854907,26.488181 4.4679808,27.027284 7.0369666,25.750842 4.1838877,26.049061 6.8518686,24.995082 3.9837772,25.050269 6.7315303,24.226348 3.8690911,24.038105 6.6768187,23.450178 3.8406556,23.019861 6.6881281,22.672164 3.8986756,22.002874 6.7653769,21.897912 4.0427332,20.994471 6.9080085,21.133 4.2717904,20.001918 7.1149954,20.38294 4.5841968,19.032366 7.3848461,19.653136 4.9777015,18.0928 l 2.7379149,0.856046 -2.2661471,-1.758855 2.6554538,1.085153 -2.108822,-1.944701 2.5538601,1.306442 -1.9363027,-2.116536 2.4338657,1.518318 -1.7498324,-2.273121 2.2963353,1.719255 -1.5507544,-2.413329 2.1422593,1.907804 -1.3405028,-2.536147 1.9727488,2.082607 -1.1205934,-2.640694 1.7890244,2.242406 -0.89261,-2.726214 1.592411,2.386048 -0.658196,-2.792091 1.384323,2.512497 -0.419039,-2.837851 1.166262,2.620844 -0.176863,-2.863165 0.939797,2.710309 0.06659,-2.867849 0.706561,2.780246 0.309559,-2.851871 0.468234,2.83015 0.550299,-2.815345 0.226534,2.859664 0.787074,-2.758534 -0.0168,2.868573 1.01818,-2.681847 -0.260011,2.856814 1.241948,-2.585838 -0.501348,2.824472 1.456768,-2.471198 -0.739074,2.771779 1.661092,-2.338753 -0.971475,2.699117 1.853448,-2.189458 -1.196876,2.607006 2.03245,-2.024386 -1.413654,2.496112 2.196808,-1.84473 -1.620246,2.367233 2.345338,-1.651781 -1.815165,2.221299 2.47697,-1.446933 -1.997005,2.05936 2.590755,-1.231658 -2.164457,1.882583 2.685874,-1.00751 -2.316314,1.692243 2.761641,-0.776102 -2.451481,1.489709 2.81751,-0.539103 -2.568986,1.276442 2.853079,-0.298219 -2.667981,1.053978 2.868091,-0.05519 -2.747753,0.823921 2.862439,0.188243 -2.807727,0.587927 2.836163,0.430317 -2.847473,0.347697 2.789453,0.66929 -2.866702,0.104962 2.722644,0.903441 -2.865275,-0.13853 2.636218,1.131083 -2.843205,-0.381023 2.530799,1.350575 -2.80065,-0.62077 2.407145,1.560336 -2.737915,-0.856046 2.266147,1.758855 -2.655454,-1.085154 2.108822,1.944702 -2.55386,-1.306443 1.936303,2.116537 -2.433866,-1.518319 1.749832,2.273122 -2.296335,-1.719255 1.550755,2.413328 -2.14226,-1.907804 1.340503,2.536148 -1.972749,-2.082607 1.120594,2.640693 -1.789025,-2.242405 0.89261,2.726213 -1.59241,-2.386047 0.658195,2.792091 -1.384323,-2.512497 0.419039,2.837851 -1.166261,-2.620845 0.176862,2.863165 -0.939797,-2.710309 -0.06659,2.86785 -0.70656,-2.780246 -0.309559,2.851871 -0.468234,-2.83015 -0.5503,2.815344 -0.226533,-2.859663 z"
       transform="matrix(0.83532409,0,0,5.4600268,89.53736,-3.5901447)" />
    <path
       sodipodi:type="star"
       style="opacity:0.99;fill:#808000;fill-opacity:1;fill-rule:evenodd;stroke:url(#linearGradient32649);stroke-width:2.933;stroke-dasharray:none;stroke-opacity:1;marker-start:url(#EmptyDiamond-1-7);paint-order:stroke fill markers"
       id="path20819-8-9"
       inkscape:flatsided="false"
       sodipodi:sides="74"
       sodipodi:cx="15.84"
       sodipodi:cy="23.194286"
       sodipodi:r1="12.000612"
       sodipodi:r2="9.1667538"
       sodipodi:arg1="1.7126934"
       sodipodi:arg2="1.7551473"
       inkscape:rounded="0"
       inkscape:randomized="0"
       d="m 14.142857,35.074286 0.0168,-2.868573 -1.018179,2.681848 0.26001,-2.856815 -1.241948,2.585839 0.501349,-2.824472 -1.456768,2.471198 0.739074,-2.77178 -1.661093,2.338753 0.971475,-2.699116 L 9.4001282,33.320625 10.597005,30.71362 8.5645544,32.738006 9.9782085,30.241894 7.7814003,32.086624 9.4016468,29.71939 7.0563086,31.371172 8.8714735,29.149873 6.3945036,30.596805 8.3915087,28.537446 5.8007536,29.769104 7.9652104,27.886521 5.2793367,28.89403 7.5956502,27.201788 4.8340095,27.97789 7.2854907,26.488181 4.4679808,27.027284 7.0369666,25.750842 4.1838877,26.049061 6.8518686,24.995082 3.9837772,25.050269 6.7315303,24.226348 3.8690911,24.038105 6.6768187,23.450178 3.8406556,23.019861 6.6881281,22.672164 3.8986756,22.002874 6.7653769,21.897912 4.0427332,20.994471 6.9080085,21.133 4.2717904,20.001918 7.1149954,20.38294 4.5841968,19.032366 7.3848461,19.653136 4.9777015,18.0928 l 2.7379149,0.856046 -2.2661471,-1.758855 2.6554538,1.085153 -2.108822,-1.944701 2.5538601,1.306442 -1.9363027,-2.116536 2.4338657,1.518318 -1.7498324,-2.273121 2.2963353,1.719255 -1.5507544,-2.413329 2.1422593,1.907804 -1.3405028,-2.536147 1.9727488,2.082607 -1.1205934,-2.640694 1.7890244,2.242406 -0.89261,-2.726214 1.592411,2.386048 -0.658196,-2.792091 1.384323,2.512497 -0.419039,-2.837851 1.166262,2.620844 -0.176863,-2.863165 0.939797,2.710309 0.06659,-2.867849 0.706561,2.780246 0.309559,-2.851871 0.468234,2.83015 0.550299,-2.815345 0.226534,2.859664 0.787074,-2.758534 -0.0168,2.868573 1.01818,-2.681847 -0.260011,2.856814 1.241948,-2.585838 -0.501348,2.824472 1.456768,-2.471198 -0.739074,2.771779 1.661092,-2.338753 -0.971475,2.699117 1.853448,-2.189458 -1.196876,2.607006 2.03245,-2.024386 -1.413654,2.496112 2.196808,-1.84473 -1.620246,2.367233 2.345338,-1.651781 -1.815165,2.221299 2.47697,-1.446933 -1.997005,2.05936 2.590755,-1.231658 -2.164457,1.882583 2.685874,-1.00751 -2.316314,1.692243 2.761641,-0.776102 -2.451481,1.489709 2.81751,-0.539103 -2.568986,1.276442 2.853079,-0.298219 -2.667981,1.053978 2.868091,-0.05519 -2.747753,0.823921 2.862439,0.188243 -2.807727,0.587927 2.836163,0.430317 -2.847473,0.347697 2.789453,0.66929 -2.866702,0.104962 2.722644,0.903441 -2.865275,-0.13853 2.636218,1.131083 -2.843205,-0.381023 2.530799,1.350575 -2.80065,-0.62077 2.407145,1.560336 -2.737915,-0.856046 2.266147,1.758855 -2.655454,-1.085154 2.108822,1.944702 -2.55386,-1.306443 1.936303,2.116537 -2.433866,-1.518319 1.749832,2.273122 -2.296335,-1.719255 1.550755,2.413328 -2.14226,-1.907804 1.340503,2.536148 -1.972749,-2.082607 1.120594,2.640693 -1.789025,-2.242405 0.89261,2.726213 -1.59241,-2.386047 0.658195,2.792091 -1.384323,-2.512497 0.419039,2.837851 -1.166261,-2.620845 0.176862,2.863165 -0.939797,-2.710309 -0.06659,2.86785 -0.70656,-2.780246 -0.309559,2.851871 -0.468234,-2.83015 -0.5503,2.815344 -0.226533,-2.859663 z"
       transform="matrix(0.8213647,-0.15207357,0.99401629,5.3687824,43.084065,11.513175)" />
    <path
       sodipodi:type="star"
       style="opacity:0.99;fill:#782121;fill-opacity:1;fill-rule:evenodd;stroke:url(#linearGradient31899);stroke-width:2.933;stroke-dasharray:none;stroke-opacity:1;marker-start:url(#EmptyDiamond-1-1);paint-order:stroke fill markers"
       id="path20819-8-3"
       inkscape:flatsided="false"
       sodipodi:sides="74"
       sodipodi:cx="15.84"
       sodipodi:cy="23.194286"
       sodipodi:r1="12.000612"
       sodipodi:r2="9.1667538"
       sodipodi:arg1="1.7126934"
       sodipodi:arg2="1.7551473"
       inkscape:rounded="0"
       inkscape:randomized="0"
       d="m 14.142857,35.074286 0.0168,-2.868573 -1.018179,2.681848 0.26001,-2.856815 -1.241948,2.585839 0.501349,-2.824472 -1.456768,2.471198 0.739074,-2.77178 -1.661093,2.338753 0.971475,-2.699116 L 9.4001282,33.320625 10.597005,30.71362 8.5645544,32.738006 9.9782085,30.241894 7.7814003,32.086624 9.4016468,29.71939 7.0563086,31.371172 8.8714735,29.149873 6.3945036,30.596805 8.3915087,28.537446 5.8007536,29.769104 7.9652104,27.886521 5.2793367,28.89403 7.5956502,27.201788 4.8340095,27.97789 7.2854907,26.488181 4.4679808,27.027284 7.0369666,25.750842 4.1838877,26.049061 6.8518686,24.995082 3.9837772,25.050269 6.7315303,24.226348 3.8690911,24.038105 6.6768187,23.450178 3.8406556,23.019861 6.6881281,22.672164 3.8986756,22.002874 6.7653769,21.897912 4.0427332,20.994471 6.9080085,21.133 4.2717904,20.001918 7.1149954,20.38294 4.5841968,19.032366 7.3848461,19.653136 4.9777015,18.0928 l 2.7379149,0.856046 -2.2661471,-1.758855 2.6554538,1.085153 -2.108822,-1.944701 2.5538601,1.306442 -1.9363027,-2.116536 2.4338657,1.518318 -1.7498324,-2.273121 2.2963353,1.719255 -1.5507544,-2.413329 2.1422593,1.907804 -1.3405028,-2.536147 1.9727488,2.082607 -1.1205934,-2.640694 1.7890244,2.242406 -0.89261,-2.726214 1.592411,2.386048 -0.658196,-2.792091 1.384323,2.512497 -0.419039,-2.837851 1.166262,2.620844 -0.176863,-2.863165 0.939797,2.710309 0.06659,-2.867849 0.706561,2.780246 0.309559,-2.851871 0.468234,2.83015 0.550299,-2.815345 0.226534,2.859664 0.787074,-2.758534 -0.0168,2.868573 1.01818,-2.681847 -0.260011,2.856814 1.241948,-2.585838 -0.501348,2.824472 1.456768,-2.471198 -0.739074,2.771779 1.661092,-2.338753 -0.971475,2.699117 1.853448,-2.189458 -1.196876,2.607006 2.03245,-2.024386 -1.413654,2.496112 2.196808,-1.84473 -1.620246,2.367233 2.345338,-1.651781 -1.815165,2.221299 2.47697,-1.446933 -1.997005,2.05936 2.590755,-1.231658 -2.164457,1.882583 2.685874,-1.00751 -2.316314,1.692243 2.761641,-0.776102 -2.451481,1.489709 2.81751,-0.539103 -2.568986,1.276442 2.853079,-0.298219 -2.667981,1.053978 2.868091,-0.05519 -2.747753,0.823921 2.862439,0.188243 -2.807727,0.587927 2.836163,0.430317 -2.847473,0.347697 2.789453,0.66929 -2.866702,0.104962 2.722644,0.903441 -2.865275,-0.13853 2.636218,1.131083 -2.843205,-0.381023 2.530799,1.350575 -2.80065,-0.62077 2.407145,1.560336 -2.737915,-0.856046 2.266147,1.758855 -2.655454,-1.085154 2.108822,1.944702 -2.55386,-1.306443 1.936303,2.116537 -2.433866,-1.518319 1.749832,2.273122 -2.296335,-1.719255 1.550755,2.413328 -2.14226,-1.907804 1.340503,2.536148 -1.972749,-2.082607 1.120594,2.640693 -1.789025,-2.242405 0.89261,2.726213 -1.59241,-2.386047 0.658195,2.792091 -1.384323,-2.512497 0.419039,2.837851 -1.166261,-2.620845 0.176862,2.863165 -0.939797,-2.710309 -0.06659,2.86785 -0.70656,-2.780246 -0.309559,2.851871 -0.468234,-2.83015 -0.5503,2.815344 -0.226533,-2.859663 z"
       transform="matrix(0.78496327,-0.2856554,1.8671628,5.1308475,4.970212,20.343382)" />
    <path
       sodipodi:type="star"
       style="opacity:0.99;fill:#800000;fill-opacity:1;fill-rule:evenodd;stroke:url(#linearGradient32501);stroke-width:2.933;stroke-dasharray:none;stroke-opacity:1;marker-start:url(#EmptyDiamond-1-8);paint-order:stroke fill markers"
       id="path20819-8-5"
       inkscape:flatsided="false"
       sodipodi:sides="74"
       sodipodi:cx="15.84"
       sodipodi:cy="23.194286"
       sodipodi:r1="12.000612"
       sodipodi:r2="9.1667538"
       sodipodi:arg1="1.7126934"
       sodipodi:arg2="1.7551473"
       inkscape:rounded="0"
       inkscape:randomized="0"
       d="m 14.142857,35.074286 0.0168,-2.868573 -1.018179,2.681848 0.26001,-2.856815 -1.241948,2.585839 0.501349,-2.824472 -1.456768,2.471198 0.739074,-2.77178 -1.661093,2.338753 0.971475,-2.699116 L 9.4001282,33.320625 10.597005,30.71362 8.5645544,32.738006 9.9782085,30.241894 7.7814003,32.086624 9.4016468,29.71939 7.0563086,31.371172 8.8714735,29.149873 6.3945036,30.596805 8.3915087,28.537446 5.8007536,29.769104 7.9652104,27.886521 5.2793367,28.89403 7.5956502,27.201788 4.8340095,27.97789 7.2854907,26.488181 4.4679808,27.027284 7.0369666,25.750842 4.1838877,26.049061 6.8518686,24.995082 3.9837772,25.050269 6.7315303,24.226348 3.8690911,24.038105 6.6768187,23.450178 3.8406556,23.019861 6.6881281,22.672164 3.8986756,22.002874 6.7653769,21.897912 4.0427332,20.994471 6.9080085,21.133 4.2717904,20.001918 7.1149954,20.38294 4.5841968,19.032366 7.3848461,19.653136 4.9777015,18.0928 l 2.7379149,0.856046 -2.2661471,-1.758855 2.6554538,1.085153 -2.108822,-1.944701 2.5538601,1.306442 -1.9363027,-2.116536 2.4338657,1.518318 -1.7498324,-2.273121 2.2963353,1.719255 -1.5507544,-2.413329 2.1422593,1.907804 -1.3405028,-2.536147 1.9727488,2.082607 -1.1205934,-2.640694 1.7890244,2.242406 -0.89261,-2.726214 1.592411,2.386048 -0.658196,-2.792091 1.384323,2.512497 -0.419039,-2.837851 1.166262,2.620844 -0.176863,-2.863165 0.939797,2.710309 0.06659,-2.867849 0.706561,2.780246 0.309559,-2.851871 0.468234,2.83015 0.550299,-2.815345 0.226534,2.859664 0.787074,-2.758534 -0.0168,2.868573 1.01818,-2.681847 -0.260011,2.856814 1.241948,-2.585838 -0.501348,2.824472 1.456768,-2.471198 -0.739074,2.771779 1.661092,-2.338753 -0.971475,2.699117 1.853448,-2.189458 -1.196876,2.607006 2.03245,-2.024386 -1.413654,2.496112 2.196808,-1.84473 -1.620246,2.367233 2.345338,-1.651781 -1.815165,2.221299 2.47697,-1.446933 -1.997005,2.05936 2.590755,-1.231658 -2.164457,1.882583 2.685874,-1.00751 -2.316314,1.692243 2.761641,-0.776102 -2.451481,1.489709 2.81751,-0.539103 -2.568986,1.276442 2.853079,-0.298219 -2.667981,1.053978 2.868091,-0.05519 -2.747753,0.823921 2.862439,0.188243 -2.807727,0.587927 2.836163,0.430317 -2.847473,0.347697 2.789453,0.66929 -2.866702,0.104962 2.722644,0.903441 -2.865275,-0.13853 2.636218,1.131083 -2.843205,-0.381023 2.530799,1.350575 -2.80065,-0.62077 2.407145,1.560336 -2.737915,-0.856046 2.266147,1.758855 -2.655454,-1.085154 2.108822,1.944702 -2.55386,-1.306443 1.936303,2.116537 -2.433866,-1.518319 1.749832,2.273122 -2.296335,-1.719255 1.550755,2.413328 -2.14226,-1.907804 1.340503,2.536148 -1.972749,-2.082607 1.120594,2.640693 -1.789025,-2.242405 0.89261,2.726213 -1.59241,-2.386047 0.658195,2.792091 -1.384323,-2.512497 0.419039,2.837851 -1.166261,-2.620845 0.176862,2.863165 -0.939797,-2.710309 -0.06659,2.86785 -0.70656,-2.780246 -0.309559,2.851871 -0.468234,-2.83015 -0.5503,2.815344 -0.226533,-2.859663 z"
       transform="matrix(0.76129495,0.41049458,-1.2564035,5.3135057,145.28425,5.0054475)"
       inkscape:transform-center-x="-3.1789279"
       inkscape:transform-center-y="-12.900771" />
    <path
       sodipodi:type="star"
       style="opacity:0.99;fill:#d35f5f;fill-opacity:1;fill-rule:evenodd;stroke:url(#linearGradient28861);stroke-width:2.9331;stroke-dasharray:none;stroke-opacity:1;marker-start:url(#EmptyDiamond-1-12);paint-order:stroke fill markers"
       id="path20819-8-2"
       inkscape:flatsided="false"
       sodipodi:sides="74"
       sodipodi:cx="15.84"
       sodipodi:cy="23.194286"
       sodipodi:r1="12.000612"
       sodipodi:r2="9.1667538"
       sodipodi:arg1="1.7126934"
       sodipodi:arg2="1.7551473"
       inkscape:rounded="0"
       inkscape:randomized="0"
       d="m 14.142857,35.074286 0.0168,-2.868573 -1.018179,2.681848 0.26001,-2.856815 -1.241948,2.585839 0.501349,-2.824472 -1.456768,2.471198 0.739074,-2.77178 -1.661093,2.338753 0.971475,-2.699116 L 9.4001282,33.320625 10.597005,30.71362 8.5645544,32.738006 9.9782085,30.241894 7.7814003,32.086624 9.4016468,29.71939 7.0563086,31.371172 8.8714735,29.149873 6.3945036,30.596805 8.3915087,28.537446 5.8007536,29.769104 7.9652104,27.886521 5.2793367,28.89403 7.5956502,27.201788 4.8340095,27.97789 7.2854907,26.488181 4.4679808,27.027284 7.0369666,25.750842 4.1838877,26.049061 6.8518686,24.995082 3.9837772,25.050269 6.7315303,24.226348 3.8690911,24.038105 6.6768187,23.450178 3.8406556,23.019861 6.6881281,22.672164 3.8986756,22.002874 6.7653769,21.897912 4.0427332,20.994471 6.9080085,21.133 4.2717904,20.001918 7.1149954,20.38294 4.5841968,19.032366 7.3848461,19.653136 4.9777015,18.0928 l 2.7379149,0.856046 -2.2661471,-1.758855 2.6554538,1.085153 -2.108822,-1.944701 2.5538601,1.306442 -1.9363027,-2.116536 2.4338657,1.518318 -1.7498324,-2.273121 2.2963353,1.719255 -1.5507544,-2.413329 2.1422593,1.907804 -1.3405028,-2.536147 1.9727488,2.082607 -1.1205934,-2.640694 1.7890244,2.242406 -0.89261,-2.726214 1.592411,2.386048 -0.658196,-2.792091 1.384323,2.512497 -0.419039,-2.837851 1.166262,2.620844 -0.176863,-2.863165 0.939797,2.710309 0.06659,-2.867849 0.706561,2.780246 0.309559,-2.851871 0.468234,2.83015 0.550299,-2.815345 0.226534,2.859664 0.787074,-2.758534 -0.0168,2.868573 1.01818,-2.681847 -0.260011,2.856814 1.241948,-2.585838 -0.501348,2.824472 1.456768,-2.471198 -0.739074,2.771779 1.661092,-2.338753 -0.971475,2.699117 1.853448,-2.189458 -1.196876,2.607006 2.03245,-2.024386 -1.413654,2.496112 2.196808,-1.84473 -1.620246,2.367233 2.345338,-1.651781 -1.815165,2.221299 2.47697,-1.446933 -1.997005,2.05936 2.590755,-1.231658 -2.164457,1.882583 2.685874,-1.00751 -2.316314,1.692243 2.761641,-0.776102 -2.451481,1.489709 2.81751,-0.539103 -2.568986,1.276442 2.853079,-0.298219 -2.667981,1.053978 2.868091,-0.05519 -2.747753,0.823921 2.862439,0.188243 -2.807727,0.587927 2.836163,0.430317 -2.847473,0.347697 2.789453,0.66929 -2.866702,0.104962 2.722644,0.903441 -2.865275,-0.13853 2.636218,1.131083 -2.843205,-0.381023 2.530799,1.350575 -2.80065,-0.62077 2.407145,1.560336 -2.737915,-0.856046 2.266147,1.758855 -2.655454,-1.085154 2.108822,1.944702 -2.55386,-1.306443 1.936303,2.116537 -2.433866,-1.518319 1.749832,2.273122 -2.296335,-1.719255 1.550755,2.413328 -2.14226,-1.907804 1.340503,2.536148 -1.972749,-2.082607 1.120594,2.640693 -1.789025,-2.242405 0.89261,2.726213 -1.59241,-2.386047 0.658195,2.792091 -1.384323,-2.512497 0.419039,2.837851 -1.166261,-2.620845 0.176862,2.863165 -0.939797,-2.710309 -0.06659,2.86785 -0.70656,-2.780246 -0.309559,2.851871 -0.468234,-2.83015 -0.5503,2.815344 -0.226533,-2.859663 z"
       transform="matrix(0.77392122,0.31434423,-2.0546849,5.058672,181.18928,18.72631)" />
    <text
       xml:space="preserve"
       style="font-style:normal;font-variant:normal;font-weight:normal;font-stretch:normal;font-size:24.9768px;line-height:1.25;font-family:'Eras Demi ITC';-inkscape-font-specification:'Eras Demi ITC, Normal';font-variant-ligatures:normal;font-variant-caps:normal;font-variant-numeric:normal;font-variant-east-asian:normal;fill:#000000;fill-opacity:1;stroke:url(#pattern33144);stroke-width:0.625405;stroke-dasharray:none;stroke-opacity:1"
       x="147.19408"
       y="77.948517"
       id="text32808"
       transform="matrix(0.57135542,0.78243212,-0.92524322,0.48316683,0,0)"><tspan
         sodipodi:role="line"
         id="tspan32806"
         style="font-style:normal;font-variant:normal;font-weight:normal;font-stretch:normal;font-size:24.9768px;font-family:'Eras Demi ITC';-inkscape-font-specification:'Eras Demi ITC, Normal';font-variant-ligatures:normal;font-variant-caps:normal;font-variant-numeric:normal;font-variant-east-asian:normal;fill:#000000;fill-opacity:1;stroke:url(#pattern33144);stroke-width:0.625405;stroke-dasharray:none;stroke-opacity:1"
         x="147.19408"
         y="77.948517">Designing</tspan></text>
    <text
       xml:space="preserve"
       style="font-style:normal;font-weight:normal;font-size:19.7077px;line-height:1.25;font-family:sans-serif;fill:#0000ff;fill-opacity:1;stroke:none;stroke-width:0.492695"
       x="39.313469"
       y="493.01385"
       id="text32812"
       transform="scale(1.8621563,0.53701185)"><tspan
         sodipodi:role="line"
         id="tspan32810"
         style="stroke-width:0.492695;fill:#0000ff"
         x="39.313469"
         y="493.01385">&amp;&amp;</tspan></text>
    <text
       xml:space="preserve"
       style="font-style:normal;font-variant:normal;font-weight:normal;font-stretch:normal;font-size:18.5645px;line-height:1.25;font-family:Algerian;-inkscape-font-specification:'Algerian, Normal';font-variant-ligatures:normal;font-variant-caps:normal;font-variant-numeric:normal;font-variant-east-asian:normal;fill:#000000;fill-opacity:1;stroke:#00000a;stroke-width:0.807708;stroke-dasharray:none;stroke-dashoffset:0;stroke-opacity:1"
       x="-87.839149"
       y="251.44719"
       id="text32816"
       transform="matrix(0.59627312,-0.84285855,0.68751509,0.70525069,0,0)"><tspan
         sodipodi:role="line"
         id="tspan32814"
         style="font-style:normal;font-variant:normal;font-weight:normal;font-stretch:normal;font-size:18.5645px;font-family:Algerian;-inkscape-font-specification:'Algerian, Normal';font-variant-ligatures:normal;font-variant-caps:normal;font-variant-numeric:normal;font-variant-east-asian:normal;fill:#000000;stroke:#00000a;stroke-width:0.807708;stroke-dasharray:none;stroke-dashoffset:0;stroke-opacity:1"
         x="-87.839149"
         y="251.44719">Development</tspan></text>
    <path
       sodipodi:type="star"
       style="opacity:0.99;fill:url(#linearGradient42385);fill-opacity:1;fill-rule:nonzero;stroke:#000000;stroke-width:0.706001;stroke-dasharray:none;stroke-dashoffset:0;stroke-opacity:1;paint-order:stroke fill markers"
       id="path36774"
       inkscape:flatsided="false"
       sodipodi:sides="74"
       sodipodi:cx="183.20934"
       sodipodi:cy="245.61252"
       sodipodi:r1="81.588478"
       sodipodi:r2="17.764488"
       sodipodi:arg1="2.0169019"
       sodipodi:arg2="2.0593559"
       inkscape:rounded="0"
       inkscape:randomized="0"
       d="m 148.00754,319.21628 26.86395,-57.91754 -32.97917,54.66706 31.67893,-55.43067 -37.49646,51.67329 36.26565,-52.54442 -41.74358,48.30722 40.59109,-49.27958 -45.68994,44.59308 44.62406,-45.65969 -49.3071,40.55766 48.33551,-41.71081 -52.56899,36.23002 51.6987,-37.46142 -55.45213,31.64134 54.68941,-32.9421 -57.93575,26.82468 57.28608,-28.18544 -60.00192,21.81475 59.47,-23.22571 -61.63579,16.64764 61.22543,-18.09862 -62.82555,11.36059 62.53973,-12.84115 -63.56267,5.99169 63.40344,-7.49115 -63.84181,0.57961 63.81032,-2.08717 -63.66098,-4.83665 63.75745,3.33184 -63.02147,-10.21804 63.24521,8.72684 -61.92788,-15.52583 62.27727,14.05898 -60.3881,-20.72175 60.86063,19.28981 -58.41322,-25.76837 59.00549,24.38166 -56.01748,-30.62932 56.72522,29.29784 -53.21813,-35.2696 54.03623,34.00293 -50.03533,-39.65575 50.95791,38.46303 -46.49204,-43.75619 47.51245,42.646 -42.61377,-47.54135 43.72464,46.5217 -38.42846,-50.98399 39.62181,50.06222 -33.96628,-54.05928 35.2335,53.24203 -29.25937,-56.74506 30.59134,56.03823 -24.34165,-59.02201 25.72876,58.43068 -19.24854,-60.8737 20.6808,60.40214 -14.01675,-62.28679 15.48384,61.93839 -8.68396,-63.2511 10.17531,63.02837 -3.28861,-63.75969 4.79348,63.66425 2.13044,-63.8089 -0.6229,63.84141 7.53414,-63.39834 -6.03479,63.55859 12.88355,-62.53101 -11.40318,62.81784 18.14013,-61.21315 -16.68943,61.62448 23.26602,-59.45423 -21.85542,59.98711 28.22427,-57.26695 -26.86395,57.91754 32.97917,-54.66706 -31.67893,55.43067 37.49646,-51.67329 -36.26565,52.54441 41.74358,-48.30721 -40.59109,49.27958 45.68994,-44.59308 -44.62406,45.65968 49.3071,-40.55766 -48.33551,41.71082 52.56899,-36.23002 -51.6987,37.46141 55.45213,-31.64133 -54.68941,32.9421 57.93575,-26.82468 -57.28608,28.18544 60.00192,-21.81475 -59.46999,23.2257 61.63578,-16.64764 -61.22543,18.09863 62.82555,-11.36059 -62.53973,12.84114 63.56267,-5.99168 -63.40344,7.49115 63.84182,-0.57961 -63.81033,2.08717 63.66098,4.83664 -63.75745,-3.33184 63.02147,10.21805 -63.2452,-8.72685 61.92787,15.52584 -62.27727,-14.05898 60.3881,20.72175 -60.86063,-19.28981 58.41322,25.76837 -59.00549,-24.38166 56.01748,30.62932 -56.72522,-29.29784 53.21813,35.2696 -54.03623,-34.00293 50.03533,39.65575 -50.95791,-38.46303 46.49204,43.75618 -47.51244,-42.64599 42.61377,47.54135 -43.72465,-46.5217 38.42846,50.98398 -39.62181,-50.06221 33.96628,54.05927 -35.2335,-53.24203 29.25937,56.74507 -30.59134,-56.03824 24.34165,59.02202 -25.72876,-58.43069 19.24854,60.8737 -20.6808,-60.40213 14.01675,62.28679 -15.48384,-61.93839 8.68396,63.2511 -10.17531,-63.02838 3.28861,63.7597 -4.79348,-63.66425 -2.13044,63.80889 0.6229,-63.84141 -7.53414,63.39835 6.03479,-63.55859 -12.88355,62.53101 11.40318,-62.81784 -18.14013,61.21315 16.68943,-61.62448 -23.26602,59.45423 21.85542,-59.98712 z"
       inkscape:transform-center-x="6.7891933e-06"
       transform="matrix(1.0000899,0,0,-0.13752204,-77.620434,322.59186)" />
    <circle
       id="path42642"
       style="fill:#000000;stroke:#000000;stroke-width:0.264583"
       cx="110.88"
       cy="289.36285"
       r="0.099748723" />
    <circle
       id="path42644"
       style="fill:#000000;stroke:#000000;stroke-width:0.264583"
       cx="169.71428"
       cy="271.25998"
       r="0.099748723" />
    <path
       sodipodi:type="star"
       style="opacity:0.99;fill:#0000ff;fill-opacity:0.60180998;fill-rule:nonzero;stroke:#000000;stroke-width:0.706001;stroke-dasharray:none;stroke-dashoffset:0;stroke-opacity:1;paint-order:stroke fill markers"
       id="path43362"
       inkscape:flatsided="false"
       sodipodi:sides="74"
       sodipodi:cx="192.90857"
       sodipodi:cy="205.35426"
       sodipodi:r1="16.199591"
       sodipodi:r2="3.5271828"
       sodipodi:arg1="2.0032041"
       sodipodi:arg2="2.0456581"
       inkscape:rounded="0"
       inkscape:randomized="0"
       d="m 186.12,220.06283 5.17589,-11.57165 -6.39881,10.94295 6.13859,-11.09101 -7.30378,10.36087 7.05705,-10.53047 -8.15613,9.70414 7.92468,-9.89406 -8.94972,8.9775 8.7352,-9.18635 -9.67882,8.18616 9.4828,-8.41246 -10.33819,7.33585 10.16205,-7.57796 -10.92307,6.43269 10.76811,-6.68886 -11.42925,5.48317 11.29657,-5.75156 -11.85308,4.49415 11.74364,-4.77283 -12.19151,3.47275 12.10609,-3.7597 -12.4421,2.42633 12.38133,-2.71949 -12.60304,1.36242 12.56735,-1.65968 -12.67318,0.2887 12.66283,-0.58792 -12.65201,-0.7871 12.66707,0.48808 -12.53968,-1.85723 12.58004,1.56057 -12.337,-2.91398 12.40238,2.62181 -12.04544,-3.94973 12.13536,3.66416 -11.66708,-4.95703 11.78089,4.68011 -11.20466,-5.92861 11.34155,5.66234 -10.66152,-6.85747 10.8205,6.60377 -10.04156,-7.73693 10.22147,7.49762 -9.34924,-8.56064 9.54881,8.33746 -8.58957,-9.32267 8.80734,9.11721 -7.768,-10.01753 8.00242,9.83128 -6.89048,-10.64021 7.13984,10.47452 -5.9633,-11.18624 6.22582,11.04228 -4.99316,-11.65166 5.26694,11.53049 -3.98704,-12.03313 4.27011,11.93562 -2.9522,-12.32792 3.24252,12.25476 -1.89608,-12.53387 2.19156,12.48559 -0.82631,-12.64951 1.12481,12.62647 0.24943,-12.67402 0.05,12.67638 1.32336,-12.60721 -1.02525,12.63494 2.38776,-12.44956 -2.09308,12.50248 3.43495,-12.20221 -3.14582,12.27993 4.4574,-11.86695 -4.1759,11.96891 5.44773,-11.44619 -5.17589,11.57165 6.39881,-10.94295 -6.13859,11.09102 7.30378,-10.36087 -7.05705,10.53047 8.15613,-9.70414 -7.92468,9.89405 8.94972,-8.97749 -8.73521,9.18635 9.67883,-8.18616 -9.4828,8.41246 10.33819,-7.33585 -10.16206,7.57795 10.92307,-6.43268 -10.7681,6.68886 11.42925,-5.48317 -11.29657,5.75156 11.85308,-4.49415 -11.74364,4.77282 12.19151,-3.47275 -12.10609,3.75971 12.4421,-2.42633 -12.38133,2.71949 12.60304,-1.36242 -12.56735,1.65968 12.67318,-0.2887 -12.66283,0.58792 12.65201,0.7871 -12.66707,-0.48809 12.53968,1.85723 -12.58004,-1.56057 12.337,2.91399 -12.40238,-2.62181 12.04544,3.94973 -12.13536,-3.66416 11.66708,4.95703 -11.78089,-4.68011 11.20466,5.92861 -11.34155,-5.66234 10.66152,6.85747 -10.8205,-6.60377 10.04156,7.73693 -10.22148,-7.49763 9.34925,8.56064 -9.54881,-8.33745 8.58957,9.32267 -8.80735,-9.11721 7.76801,10.01753 -8.00242,-9.83129 6.89048,10.64022 -7.13984,-10.47452 5.9633,11.18624 -6.22582,-11.04229 4.99316,11.65167 -5.26694,-11.5305 3.98704,12.03314 -4.27011,-11.93562 2.9522,12.32791 -3.24252,-12.25475 1.89608,12.53386 -2.19156,-12.48559 0.82631,12.64951 -1.12481,-12.62646 -0.24943,12.67401 -0.05,-12.67637 -1.32336,12.60721 1.02525,-12.63495 -2.38776,12.44956 2.09308,-12.50247 -3.43495,12.20221 3.14582,-12.27993 -4.4574,11.86695 4.1759,-11.96891 z"
       inkscape:transform-center-x="1.8404984e-06"
       transform="matrix(0.68535992,0,0,2.2224173,-30.948947,-238.01717)"
       inkscape:transform-center-y="2.5760987e-06" />
  </g>
</svg>
